<?xml version="1.0" standalone="no"?>
<!DOCTYPE svg PUBLIC "-//W3C//DTD SVG 20010904//EN"
 "http://www.w3.org/TR/2001/REC-SVG-20010904/DTD/svg10.dtd">
<svg version="1.0" xmlns="http://www.w3.org/2000/svg"
 width="374.000000pt" height="135.000000pt" viewBox="0 0 374.000000 135.000000"
 preserveAspectRatio="xMidYMid meet">

<g transform="translate(0.000000,135.000000) scale(0.100000,-0.100000)"
fill="#000000" stroke="none">
<path d="M920 1065 l0 -125 130 0 130 0 0 125 0 125 -130 0 -130 0 0 -125z"/>
<path d="M1530 987 l-55 -12 -3 -54 c-4 -68 5 -77 54 -56 52 22 181 30 213 13
23 -12 49 -63 38 -74 -2 -2 -44 -9 -92 -15 -141 -16 -210 -54 -241 -135 -32
-83 -1 -186 69 -232 58 -38 152 -38 220 0 44 25 47 25 47 7 0 -17 7 -19 61
-19 l60 0 -3 228 c-3 207 -5 231 -24 267 -33 63 -89 89 -199 92 -49 1 -115 -4
-145 -10z m250 -362 l0 -64 -46 -27 c-64 -38 -128 -38 -161 0 -63 73 18 154
155 156 l52 0 0 -65z"/>
<path d="M2114 981 c-52 -24 -109 -91 -131 -155 -23 -68 -23 -204 0 -271 21
-62 65 -117 111 -139 52 -25 142 -21 193 8 l42 24 3 -121 3 -122 58 -3 57 -3
0 396 0 395 -55 0 c-30 0 -55 -4 -55 -9 0 -6 -16 -3 -35 5 -48 20 -141 18
-191 -5z m185 -102 l31 -11 0 -153 0 -153 -37 -23 c-48 -30 -122 -32 -153 -4
-35 31 -50 78 -50 159 0 93 21 151 64 177 35 21 97 25 145 8z"/>
<path d="M3190 987 l-55 -12 -3 -54 c-2 -30 1 -58 6 -63 5 -5 25 -2 48 8 21 9
72 18 114 21 66 5 78 3 103 -17 16 -12 27 -31 27 -45 0 -26 -4 -27 -114 -39
-108 -13 -185 -57 -212 -122 -32 -77 -8 -186 52 -233 62 -49 181 -49 247 -1
l27 21 0 -21 c0 -18 6 -20 60 -20 l60 0 0 225 c0 168 -3 234 -14 258 -17 42
-66 83 -114 97 -48 13 -161 11 -232 -3z m240 -361 c0 -58 -3 -67 -26 -85 -40
-32 -98 -44 -140 -31 -39 13 -54 35 -54 80 0 58 67 97 173 99 l47 1 0 -64z"/>
<path d="M2562 752 l3 -239 27 -41 c37 -55 79 -76 153 -77 48 0 69 6 108 28
45 27 47 27 47 7 0 -18 6 -20 60 -20 l60 0 -2 288 -3 287 -57 3 -58 3 0 -209
c0 -186 -2 -211 -17 -224 -58 -50 -146 -64 -179 -27 -17 19 -20 43 -24 238
l-5 216 -58 3 -58 3 3 -239z"/>
<path d="M252 802 l-133 -127 1 -257 0 -258 135 0 135 0 0 385 c0 212 -1 385
-2 385 -2 -1 -63 -58 -136 -128z"/>
</g>
</svg>
